<?xml version="1.0" encoding="UTF-8"?>
<svg version="1.1" xmlns="http://www.w3.org/2000/svg" width="391" height="129">
<path d="M0 0 C8.88115097 6.33913996 16.00072913 15.38969881 18.4375 26.1875 C18.94284102 33.30558929 14.77202062 40.85511103 10.5 46.3125 C4.22734483 52.8899645 -3.15019406 54.09752809 -11.91671753 54.43786621 C-15.84016127 54.52391169 -19.76345116 54.58166345 -23.6875 54.62890625 C-25.1333877 54.64951244 -26.57926987 54.67050978 -28.02514648 54.69187927 C-31.80616747 54.74672192 -35.58723935 54.79629572 -39.36834717 54.84472656 C-43.23649555 54.89522006 -47.10457123 54.95075984 -50.97265625 55.00585938 C-58.54420903 55.11297753 -66.11582282 55.21452271 -73.6875 55.3125 C-72.39203751 55.33676056 -72.39203751 55.33676056 -71.07040405 55.36151123 C-62.91902897 55.51759469 -54.768306 55.6922307 -46.61777306 55.88755417 C-42.42777039 55.987315 -38.23786448 56.07997355 -34.04736328 56.15625 C-30.00089823 56.23016867 -25.95525953 56.32294055 -21.90950394 56.42862701 C-20.36834886 56.46560306 -18.82701701 56.49586035 -17.28559494 56.51918793 C-15.1210195 56.55311082 -12.95831322 56.61120992 -10.79443359 56.67480469 C-9.56421478 56.70145203 -8.33399597 56.72809937 -7.0664978 56.7555542 C-3.06472028 57.41515013 -0.8506386 58.81960858 2.3125 61.3125 C4.420356 64.28239235 4.49913377 66.32092704 4 69.875 C3.90074219 70.63941406 3.80148437 71.40382813 3.69921875 72.19140625 C3.3125 74.3125 3.3125 74.3125 2.3125 77.3125 C-39.5975 77.3125 -81.5075 77.3125 -124.6875 77.3125 C-127.27893974 72.12962053 -125.42723615 66.02149482 -123.72265625 60.8046875 C-120.75035914 53.64874199 -115.82185554 48.39324444 -108.6875 45.3125 C-105.37793213 44.40946077 -102.08468498 43.77891679 -98.6875 43.3125 C-98.749375 42.136875 -98.81125 40.96125 -98.875 39.75 C-98.84966373 32.56716875 -95.62836533 27.36826917 -90.6875 22.3125 C-86.02735503 19.24104082 -81.22665951 18.1224308 -75.6875 18.3125 C-72.5680309 19.05455553 -69.64326198 20.0756918 -66.6875 21.3125 C-65.9140625 19.6109375 -65.9140625 19.6109375 -65.125 17.875 C-59.03058687 5.89778531 -49.71037024 -1.78250283 -36.90234375 -6.02734375 C-23.70256063 -8.7378703 -11.52035677 -7.0098442 0 0 Z " fill="#F18120" transform="translate(321.6875,6.6875)"/>
<path d="M0 0 C9.87748937 0.17191833 17.63236091 3.83539895 25.0625 10.25 C32.99056835 18.60339391 36.32807995 28.46857253 36.2265625 39.8046875 C36.00282202 43.13948608 35.51559163 46.79690837 33.0625 49.25 C31.46639018 49.34333705 29.86616572 49.36745372 28.26733398 49.36352539 C27.24635117 49.36344986 26.22536835 49.36337433 25.17344666 49.36329651 C24.0630452 49.35813522 22.95264374 49.35297394 21.80859375 49.34765625 C20.67801041 49.3462413 19.54742706 49.34482635 18.38258362 49.34336853 C14.75502935 49.33775019 11.12753576 49.32519458 7.5 49.3125 C5.04752693 49.30748736 2.5950529 49.30292405 0.14257812 49.29882812 C-5.88413545 49.2877748 -11.91081339 49.27101884 -17.9375 49.25 C-18.91064792 45.50466095 -19.05642139 44.52252818 -17.4375 40.8125 C-14.26391028 35.76561079 -9.51646481 31.44173617 -3.9375 29.25 C-1.17532202 28.80073009 1.53532991 28.42430632 4.3125 28.125 C5.43011719 27.99544922 5.43011719 27.99544922 6.5703125 27.86328125 C8.40027846 27.65213133 10.23129879 27.45015455 12.0625 27.25 C11.19367188 27.16363281 10.32484375 27.07726562 9.4296875 26.98828125 C2.44732548 26.13696418 -2.14987512 25.5695832 -6.9375 20.25 C-9.67337058 14.77825884 -7.40064895 8.75533626 -5.69140625 3.2890625 C-4.37290807 -0.27703102 -4.2290631 0.26851194 0 0 Z " fill="#F6AC3F" transform="translate(346.9375,34.75)"/>
<path d="M0 0 C2.805 -0.0825 5.61 -0.165 8.5 -0.25 C9.8003418 -0.30462402 9.8003418 -0.30462402 11.12695312 -0.36035156 C16.72811436 -0.43906235 21.49144123 0.48332416 26 4 C28.10456261 7.44523422 28.48421635 9.96486372 28 14 C26.72245446 16.0360882 25.39300182 18.04109119 24 20 C24 23.40037669 24.48956196 23.9768533 26.5 26.5625 C29 29.79166667 29 29.79166667 29 32 C25.54659024 32.49139427 22.43483292 32.68492204 19 32 C16.32466667 29.71133594 14.55562726 27.14919665 13 24 C13 23.34 13 22.68 13 22 C11.68 22 10.36 22 9 22 C9 25.3 9 28.6 9 32 C6.03 32 3.06 32 0 32 C0 21.44 0 10.88 0 0 Z M9 9 C9 10.98 9 12.96 9 15 C11.64 15 14.28 15 17 15 C17.66 13.68 18.32 12.36 19 11 C17.23863645 8.81668311 17.23863645 8.81668311 15.0546875 8.8046875 C12.02734375 8.90234375 12.02734375 8.90234375 9 9 Z " fill="#3D3D3D" transform="translate(313,97)"/>
<path d="M0 0 C13.05025379 0.13275945 13.05025379 0.13275945 18.12109375 4.71484375 C22.19628712 9.43652672 22.85582195 12.65939617 22.77734375 18.7109375 C22.36623556 22.47460402 21.0171364 24.46790187 18.5 27.25 C12.50353199 31.97062376 7.72794785 32.39064424 0.25 32.375 C-0.99265625 32.37757813 -2.2353125 32.38015625 -3.515625 32.3828125 C-6.5 32.25 -6.5 32.25 -7.5 31.25 C-7.60012401 29.04349344 -7.6308118 26.83377614 -7.6328125 24.625 C-7.63376923 23.96290527 -7.63472595 23.30081055 -7.63571167 22.61865234 C-7.63639326 21.21647039 -7.63454042 19.8142853 -7.63037109 18.41210938 C-7.62502246 16.25904287 -7.6303167 14.10618498 -7.63671875 11.953125 C-7.63605796 10.59374954 -7.63477679 9.2343742 -7.6328125 7.875 C-7.63168457 6.62976563 -7.63055664 5.38453125 -7.62939453 4.1015625 C-7.3923562 -1.12222567 -4.64144204 0.05950567 0 0 Z M1.5 8.25 C1.5 13.2 1.5 18.15 1.5 23.25 C7.85974576 23.69281575 7.85974576 23.69281575 10.9375 22.25 C13.05963522 19.53366692 13.01308909 17.49836536 12.80859375 14.12109375 C12.58582541 12.17231181 12.58582541 12.17231181 11.5 10.3125 C8.28963377 8.60699294 5.10700273 8.54565596 1.5 8.25 Z " fill="#383838" transform="translate(165.5,96.75)"/>
<path d="M0 0 C6.1565625 -0.0309375 6.1565625 -0.0309375 12.4375 -0.0625 C14.38160767 -0.07615601 14.38160767 -0.07615601 16.36499023 -0.09008789 C17.88394897 -0.09383423 17.88394897 -0.09383423 19.43359375 -0.09765625 C20.47572021 -0.10289307 21.51784668 -0.10812988 22.59155273 -0.11352539 C25 0 25 0 26 1 C26 3.31 26 5.62 26 8 C20.39 8 14.78 8 9 8 C9 9.32 9 10.64 9 12 C13.95 12 18.9 12 24 12 C24 14.64 24 17.28 24 20 C19.05 20 14.1 20 9 20 C9.33 20.99 9.66 21.98 10 23 C15.28 23 20.56 23 26 23 C26 25.97 26 28.94 26 32 C17.42 32 8.84 32 0 32 C0 21.44 0 10.88 0 0 Z " fill="#3D3D3D" transform="translate(352,97)"/>
<path d="M0 0 C3.97223861 2.60599094 6.31079801 5.50985924 7.77734375 10.08203125 C8.43454742 15.11785435 8.38360524 18.86950827 6.08984375 23.45703125 C2.51810595 27.51143632 -0.69402384 30.73252861 -6.2734375 31.28515625 C-11.37157258 31.39081708 -14.87949008 31.04328091 -19.22265625 28.08203125 C-23.12254534 24.11872933 -25.3722552 20.99318305 -25.53515625 15.39453125 C-25.45794499 10.04379121 -24.52241385 7.31248971 -21.22265625 3.08203125 C-15.2390063 -1.77968434 -7.27492307 -3.00458158 0 0 Z M-15.22265625 10.08203125 C-16.41573787 13.74081487 -16.54933369 15.38200817 -14.91015625 18.89453125 C-13.40687037 21.17118751 -13.40687037 21.17118751 -11.22265625 22.08203125 C-7.76465266 22.49876332 -7.76465266 22.49876332 -4.22265625 22.08203125 C-1.62210298 19.90092205 -1.28318062 18.48840915 -0.78515625 15.14453125 C-1.33784497 11.27571021 -2.31592993 9.68278638 -5.22265625 7.08203125 C-9.51890153 6.36599037 -12.26492667 6.79566505 -15.22265625 10.08203125 Z " fill="#3D3D3D" transform="translate(99.22265625,97.91796875)"/>
<path d="M0 0 C4.15662929 2.83406542 7.15304354 5.76269254 8.5625 10.75 C8.624375 11.45125 8.68625 12.1525 8.75 12.875 C5.71593419 13.10838968 2.77692893 13.23359088 -0.25 12.875 C-1.62310707 11.58266393 -2.96034824 10.25062854 -4.25 8.875 C-7.98327045 8.35103222 -10.17225691 8.06669268 -13.25 10.375 C-14.75371778 14.13429446 -13.97530452 16.91879351 -13.25 20.875 C-9.26416997 21.68416834 -9.26416997 21.68416834 -5.25 21.875 C-4.63125 21.235625 -4.0125 20.59625 -3.375 19.9375 C-0.7013901 17.34252569 0.36159725 17.59952099 4 17.625 C5.58422847 17.68910173 7.16820385 17.76632698 8.75 17.875 C7.48189061 23.79284383 4.4651965 26.46093084 -0.25 29.875 C-4.61819852 32.05909926 -10.81291986 31.65326464 -15.390625 30.19140625 C-19.68845915 27.93971488 -22.26270378 25.24705169 -24.25 20.875 C-25.02022266 15.54696487 -24.95243513 11.30588638 -22.5625 6.4375 C-16.09979426 -0.72387663 -9.28897259 -3.21541359 0 0 Z " fill="#3C3C3C" transform="translate(24.25,98.125)"/>
<path d="M0 0 C2.97 0 5.94 0 9 0 C10.69730122 3.75070364 12.3877432 7.5044159 14.07202148 11.26098633 C14.64536088 12.53721234 15.22053368 13.81261641 15.79760742 15.0871582 C16.62906321 16.92439571 17.4532832 18.76490237 18.27734375 20.60546875 C18.77484131 21.71043701 19.27233887 22.81540527 19.78491211 23.95385742 C20.86761919 26.66813032 21.54815604 29.12271386 22 32 C18.7 32 15.4 32 12 32 C11.34 30.02 10.68 28.04 10 26 C6.04 26 2.08 26 -2 26 C-2.66 27.98 -3.32 29.96 -4 32 C-6.97 32 -9.94 32 -13 32 C-12.39154128 28.40853134 -11.41455125 25.34732868 -9.93359375 22.0234375 C-9.53076172 21.105625 -9.12792969 20.1878125 -8.71289062 19.2421875 C-7.85908381 17.32275656 -7.00491414 15.40348698 -6.15039062 13.484375 C-5.74884766 12.56914063 -5.34730469 11.65390625 -4.93359375 10.7109375 C-4.3775647 9.46256104 -4.3775647 9.46256104 -3.81030273 8.18896484 C-2.82642288 5.92011746 -2.82642288 5.92011746 -3 3 C-2.34 3 -1.68 3 -1 3 C-0.67 2.01 -0.34 1.02 0 0 Z M4 12 C2.5393715 14.64738916 2 15.89448334 2 19 C3.65 19 5.3 19 7 19 C6.34 16.69 5.68 14.38 5 12 C4.67 12 4.34 12 4 12 Z " fill="#3B3B3B" transform="translate(281,97)"/>
<path d="M0 0 C2.97 0 5.94 0 9 0 C9.04898438 1.40894531 9.09796875 2.81789063 9.1484375 4.26953125 C9.22347003 6.11720739 9.29901766 7.96486267 9.375 9.8125 C9.4059375 10.74126953 9.436875 11.67003906 9.46875 12.62695312 C9.50742188 13.51962891 9.54609375 14.41230469 9.5859375 15.33203125 C9.6173584 16.15421143 9.6487793 16.9763916 9.68115234 17.82348633 C9.88373622 20.28952937 9.88373622 20.28952937 12 23 C14.5 23.41666667 14.5 23.41666667 17 23 C19.48057628 20.51942372 19.29019005 19.63807536 19.4140625 16.2109375 C19.45273438 15.26992187 19.49140625 14.32890625 19.53125 13.359375 C19.5621875 12.37453125 19.593125 11.3896875 19.625 10.375 C19.66367188 9.38242188 19.70234375 8.38984375 19.7421875 7.3671875 C19.8366314 4.91164615 19.92219875 2.4561159 20 0 C22.97 0 25.94 0 29 0 C29.08736736 3.72901814 29.14051482 7.45777165 29.1875 11.1875 C29.21263672 12.24259766 29.23777344 13.29769531 29.26367188 14.38476562 C29.27333984 15.40634766 29.28300781 16.42792969 29.29296875 17.48046875 C29.3086792 18.41785889 29.32438965 19.35524902 29.34057617 20.32104492 C28.77860716 24.74146499 26.39433614 28.17138655 23 31 C17.15323045 32.94892318 11.06047738 32.99344445 5.5 30.3125 C2.27244337 27.32701011 0.22395343 24.76160644 -0.34057617 20.32104492 C-0.32486572 19.38365479 -0.30915527 18.44626465 -0.29296875 17.48046875 C-0.28330078 16.45888672 -0.27363281 15.43730469 -0.26367188 14.38476562 C-0.23853516 13.32966797 -0.21339844 12.27457031 -0.1875 11.1875 C-0.17396484 10.11306641 -0.16042969 9.03863281 -0.14648438 7.93164062 C-0.11122577 5.28724545 -0.06194366 2.64388252 0 0 Z " fill="#3C3C3C" transform="translate(117,97)"/>
<path d="M0 0 C8.25 0 16.5 0 25 0 C25 2.97 25 5.94 25 9 C20.05 9 15.1 9 10 9 C10 10.32 10 11.64 10 13 C14.62 13 19.24 13 24 13 C24 15.31 24 17.62 24 20 C19.38 20 14.76 20 10 20 C10.020625 21.794375 10.04125 23.58875 10.0625 25.4375 C10.0838122 27.29166122 10.07226502 29.14712498 10 31 C9.67 31.33 9.34 31.66 9 32 C6.03 32 3.06 32 0 32 C0 21.44 0 10.88 0 0 Z " fill="#3F3F3F" transform="translate(199,97)"/>
<path d="M0 0 C2.97 0 5.94 0 9 0 C9 7.59 9 15.18 9 23 C12.4340625 22.9690625 12.4340625 22.9690625 15.9375 22.9375 C18.29166332 22.91629132 20.64686445 22.92728259 23 23 C24 24 24 24 24.125 27.5 C24 31 24 31 23 32 C21.29227642 32.08713831 19.58101351 32.10700007 17.87109375 32.09765625 C16.93966553 32.09515869 16.0082373 32.09266113 15.04858398 32.09008789 C13.26109741 32.07643188 13.26109741 32.07643188 11.4375 32.0625 C7.663125 32.041875 3.88875 32.02125 0 32 C0 21.44 0 10.88 0 0 Z " fill="#3F3F3F" transform="translate(42,97)"/>
<path d="M0 0 C2.97 0 5.94 0 9 0 C9 7.59 9 15.18 9 23 C12.4340625 22.9690625 12.4340625 22.9690625 15.9375 22.9375 C18.29166332 22.91629132 20.64686445 22.92728259 23 23 C24 24 24 24 24.125 27.5 C24 31 24 31 23 32 C21.29227642 32.08713831 19.58101351 32.10700007 17.87109375 32.09765625 C16.93966553 32.09515869 16.0082373 32.09266113 15.04858398 32.09008789 C13.26109741 32.07643188 13.26109741 32.07643188 11.4375 32.0625 C7.663125 32.041875 3.88875 32.02125 0 32 C0 21.44 0 10.88 0 0 Z " fill="#3F3F3F" transform="translate(236,97)"/>
<path d="M0 0 C4.29 0 8.58 0 13 0 C11.68 1.65 10.36 3.3 9 5 C8.01 5 7.02 5 6 5 C6 10.28 6 15.56 6 21 C7.65 21 9.3 21 11 21 C13.99200963 21.51291594 14.7930902 21.7930902 17 24 C17 25.65 17 27.3 17 29 C11.39 28.67 5.78 28.34 0 28 C0 18.76 0 9.52 0 0 Z " fill="#3F3F3F" transform="translate(160,99)"/>
<path d="M0 0 C8.25 0 16.5 0 25 0 C24.67 1.32 24.34 2.64 24 4 C24 3.34 24 2.68 24 2 C16.74 2 9.48 2 2 2 C2 11.24 2 20.48 2 30 C9.26 30 16.52 30 24 30 C24 28.35 24 26.7 24 25 C18.72 25 13.44 25 8 25 C8.33 24.34 8.66 23.68 9 23 C14.61 23 20.22 23 26 23 C26 25.97 26 28.94 26 32 C17.42 32 8.84 32 0 32 C0 21.44 0 10.88 0 0 Z " fill="#343434" transform="translate(352,97)"/>
<path d="M0 0 C8.25 0 16.5 0 25 0 C25 2.97 25 5.94 25 9 C20.05 9 15.1 9 10 9 C9.67 10.32 9.34 11.64 9 13 C8.67 13 8.34 13 8 13 C7.957279 11.33388095 7.95936168 9.66617115 8 8 C9 7 9 7 12.37890625 6.90234375 C13.77347077 6.90901631 15.16801743 6.92097468 16.5625 6.9375 C17.27341797 6.94201172 17.98433594 6.94652344 18.71679688 6.95117188 C20.47790013 6.96299136 22.23896036 6.98092737 24 7 C24 5.35 24 3.7 24 2 C16.74 2 9.48 2 2 2 C2 11.24 2 20.48 2 30 C3.98 30 5.96 30 8 30 C7.98839844 29.28972656 7.97679687 28.57945313 7.96484375 27.84765625 C7.95130859 26.46900391 7.95130859 26.46900391 7.9375 25.0625 C7.92589844 24.14597656 7.91429687 23.22945312 7.90234375 22.28515625 C8 20 8 20 9 19 C11.35313555 18.92728259 13.70833668 18.91629132 16.0625 18.9375 C17.35285156 18.94652344 18.64320313 18.95554687 19.97265625 18.96484375 C20.97167969 18.97644531 21.97070312 18.98804687 23 19 C23 19.33 23 19.66 23 20 C18.71 20 14.42 20 10 20 C10.020625 21.794375 10.04125 23.58875 10.0625 25.4375 C10.0838122 27.29166122 10.07226502 29.14712498 10 31 C9.67 31.33 9.34 31.66 9 32 C6.03 32 3.06 32 0 32 C0 21.44 0 10.88 0 0 Z " fill="#2E2E2E" transform="translate(199,97)"/>
<path d="M0 0 C3.94680864 2.60321421 6.20046343 5.56363706 7.7734375 10.0859375 C7.4434375 11.0759375 7.1134375 12.0659375 6.7734375 13.0859375 C6.5053125 12.5290625 6.2371875 11.9721875 5.9609375 11.3984375 C3.23766393 6.01398708 3.23766393 6.01398708 -1.2265625 2.0859375 C-3.85187774 1.91880181 -3.85187774 1.91880181 -6.2265625 2.0859375 C-6.2265625 1.4259375 -6.2265625 0.7659375 -6.2265625 0.0859375 C-7.2165625 1.0759375 -8.2065625 2.0659375 -9.2265625 3.0859375 C-6.35705738 5.08852156 -6.35705738 5.08852156 -3.6015625 6.3984375 C-1.2265625 8.0859375 -1.2265625 8.0859375 -0.4140625 10.7734375 C-0.3521875 11.5365625 -0.2903125 12.2996875 -0.2265625 13.0859375 C-0.9278125 12.2609375 -1.6290625 11.4359375 -2.3515625 10.5859375 C-4.99456243 7.8288847 -4.99456243 7.8288847 -8.3515625 7.6484375 C-11.41736792 7.90748818 -11.41736792 7.90748818 -14.2265625 10.0859375 C-14.5565625 11.0759375 -14.8865625 12.0659375 -15.2265625 13.0859375 C-15.8865625 13.0859375 -16.5465625 13.0859375 -17.2265625 13.0859375 C-17.5565625 11.1059375 -17.8865625 9.1259375 -18.2265625 7.0859375 C-17.5665625 6.7559375 -16.9065625 6.4259375 -16.2265625 6.0859375 C-17.2165625 6.0859375 -18.2065625 6.0859375 -19.2265625 6.0859375 C-19.5565625 6.7459375 -19.8865625 7.4059375 -20.2265625 8.0859375 C-20.8865625 7.7559375 -21.5465625 7.4259375 -22.2265625 7.0859375 C-22.5565625 10.0559375 -22.8865625 13.0259375 -23.2265625 16.0859375 C-23.8865625 16.0859375 -24.5465625 16.0859375 -25.2265625 16.0859375 C-24.97485964 10.30935678 -24.69889718 6.19565045 -20.2265625 2.0859375 C-14.60773446 -1.98771283 -6.43067538 -2.63996147 0 0 Z " fill="#393939" transform="translate(99.2265625,97.9140625)"/>
<path d="M0 0 C1.98 0 3.96 0 6 0 C6 0.33 6 0.66 6 1 C4.35 1 2.7 1 1 1 C1.33 9.91 1.66 18.82 2 28 C8.6 28.33 15.2 28.66 22 29 C22 27.35 22 25.7 22 24 C17.38 24 12.76 24 8 24 C6.61446921 19.84340763 6.59390331 15.79303199 6.375 11.4375 C6.3234375 10.56158203 6.271875 9.68566406 6.21875 8.78320312 C6.17492187 7.94595703 6.13109375 7.10871094 6.0859375 6.24609375 C6.0451709 5.47966553 6.0044043 4.7132373 5.96240234 3.92358398 C6 2 6 2 7 0 C7.66 0 8.32 0 9 0 C9 7.26 9 14.52 9 22 C12.4340625 21.9690625 12.4340625 21.9690625 15.9375 21.9375 C18.29166332 21.91629132 20.64686445 21.92728259 23 22 C24 23 24 23 24.125 26.5 C24 30 24 30 23 31 C21.29227642 31.08713831 19.58101351 31.10700007 17.87109375 31.09765625 C16.93966553 31.09515869 16.0082373 31.09266113 15.04858398 31.09008789 C13.26109741 31.07643188 13.26109741 31.07643188 11.4375 31.0625 C7.663125 31.041875 3.88875 31.02125 0 31 C0 20.77 0 10.54 0 0 Z " fill="#2A2A2A" transform="translate(236,98)"/>
<path d="M0 0 C2.97 0 5.94 0 9 0 C9 4.62 9 9.24 9 14 C8.01 14.495 8.01 14.495 7 15 C7 10.71 7 6.42 7 2 C5.35 2.33 3.7 2.66 2 3 C1.67 11.91 1.34 20.82 1 30 C7.93 30 14.86 30 22 30 C22 28.35 22 26.7 22 25 C17.71 25 13.42 25 9 25 C9 24.34 9 23.68 9 23 C11.31243792 22.97314588 13.6249627 22.95367159 15.9375 22.9375 C17.22527344 22.92589844 18.51304688 22.91429688 19.83984375 22.90234375 C23 23 23 23 24 24 C24.125 27.5 24.125 27.5 24 31 C23 32 23 32 20.77514648 32.11352539 C19.81680908 32.10828857 18.85847168 32.10305176 17.87109375 32.09765625 C16.93966553 32.09515869 16.0082373 32.09266113 15.04858398 32.09008789 C13.26109741 32.07643188 13.26109741 32.07643188 11.4375 32.0625 C7.663125 32.041875 3.88875 32.02125 0 32 C0 21.44 0 10.88 0 0 Z " fill="#2F2F2F" transform="translate(42,97)"/>
<path d="M0 0 C3.42810525 0.06856211 6.04774311 0.21839092 8.765625 2.44921875 C11.70699954 5.74041696 13.72402496 8.44641188 14 13 C10.96593419 13.23338968 8.02692893 13.35859088 5 13 C3.62689293 11.70766393 2.28965176 10.37562854 1 9 C-2.5 8.16666667 -2.5 8.16666667 -6 9 C-8.49540371 11.86615486 -8.49540371 11.86615486 -10 15 C-10.33 14.01 -10.66 13.02 -11 12 C-9.5 9.375 -9.5 9.375 -7 7 C-3.25 6.1875 -3.25 6.1875 0 6 C1.01111093 2.95086772 1.01111093 2.95086772 0 0 Z " fill="#363636" transform="translate(19,98)"/>
<path d="M0 0 C4.3003125 -0.061875 4.3003125 -0.061875 8.6875 -0.125 C9.58170654 -0.14320801 10.47591309 -0.16141602 11.3972168 -0.18017578 C15.71933593 -0.21022752 19.06715142 -0.03450823 23 2 C22.67 2.66 22.34 3.32 22 4 C21.34 3.67 20.68 3.34 20 3 C17.11426648 2.92800066 14.25934885 2.9072932 11.375 2.9375 C7.229375 2.9684375 7.229375 2.9684375 3 3 C2.67 11.91 2.34 20.82 2 30 C4.31 30 6.62 30 9 30 C9 30.66 9 31.32 9 32 C6.03 32 3.06 32 0 32 C0 21.44 0 10.88 0 0 Z " fill="#323232" transform="translate(313,97)"/>
<path d="M0 0 C1.93166016 0.01740234 1.93166016 0.01740234 3.90234375 0.03515625 C5.19269531 0.04417969 6.48304688 0.05320312 7.8125 0.0625 C8.81152344 0.07410156 9.81054688 0.08570312 10.83984375 0.09765625 C11.16984375 0.75765625 11.49984375 1.41765625 11.83984375 2.09765625 C7.21984375 2.09765625 2.59984375 2.09765625 -2.16015625 2.09765625 C-2.16015625 11.33765625 -2.16015625 20.57765625 -2.16015625 30.09765625 C2.45984375 30.09765625 7.07984375 30.09765625 11.83984375 30.09765625 C11.50984375 30.75765625 11.17984375 31.41765625 10.83984375 32.09765625 C8.52740583 32.12451037 6.21488105 32.14398466 3.90234375 32.16015625 C2.61457031 32.17175781 1.32679688 32.18335938 0 32.1953125 C-3.16015625 32.09765625 -3.16015625 32.09765625 -4.16015625 31.09765625 C-4.26028026 28.89114969 -4.29096805 26.68143239 -4.29296875 24.47265625 C-4.29392548 23.81056152 -4.2948822 23.1484668 -4.29586792 22.46630859 C-4.29654951 21.06412664 -4.29469667 19.66194155 -4.29052734 18.25976562 C-4.28517871 16.10669912 -4.29047295 13.95384123 -4.296875 11.80078125 C-4.29621421 10.44140579 -4.29493304 9.08203045 -4.29296875 7.72265625 C-4.29184082 6.47742188 -4.29071289 5.2321875 -4.28955078 3.94921875 C-4.10775467 -0.05715597 -4.05803032 0.12540267 0 0 Z " fill="#2B2B2C" transform="translate(162.16015625,96.90234375)"/>
<path d="M0 0 C4.17868791 1.22902586 6.07414859 2.89655211 9.1875 5.9375 C9.5175 6.9275 9.8475 7.9175 10.1875 8.9375 C9.5275 8.9375 8.8675 8.9375 8.1875 8.9375 C7.73375 8.298125 7.28 7.65875 6.8125 7 C5.36601963 4.80769106 5.36601963 4.80769106 3.125 4.125 C1.10672971 3.75651471 1.10672971 3.75651471 -0.8125 4.9375 C-0.296875 5.72125 0.21875 6.505 0.75 7.3125 C1.224375 8.17875 1.69875 9.045 2.1875 9.9375 C1.8575 10.5975 1.5275 11.2575 1.1875 11.9375 C0.836875 11.463125 0.48625 10.98875 0.125 10.5 C-2.65413543 8.25876175 -5.3269717 8.26632342 -8.8125 7.9375 C-9.1425 12.5575 -9.4725 17.1775 -9.8125 21.9375 C-12.30560643 18.19784036 -11.8728261 16.64679359 -11.4375 12.25 C-11.32664063 11.07050781 -11.21578125 9.89101562 -11.1015625 8.67578125 C-11.00617188 7.77214844 -10.91078125 6.86851563 -10.8125 5.9375 C-9.8225 5.9375 -8.8325 5.9375 -7.8125 5.9375 C-7.544375 5.31875 -7.27625 4.7 -7 4.0625 C-5.20922428 0.85795397 -3.65946161 -0.08132137 0 0 Z " fill="#373737" transform="translate(176.8125,98.0625)"/>
<path d="M0 0 C5.94 0 11.88 0 18 0 C18 2.97 18 5.94 18 9 C9.42 9 0.84 9 -8 9 C-7.67 8.34 -7.34 7.68 -7 7 C0.59 7 8.18 7 16 7 C16 5.35 16 3.7 16 2 C10.72 2 5.44 2 0 2 C0 1.34 0 0.68 0 0 Z " fill="#2E2E2F" transform="translate(360,120)"/>
<path d="M0 0 C5.68701095 1.48356808 5.68701095 1.48356808 7.25 4.0625 C7.4975 4.701875 7.745 5.34125 8 6 C8.66 6.33 9.32 6.66 10 7 C10 7.66 10 8.32 10 9 C9.505 9.45375 9.01 9.9075 8.5 10.375 C6.54781326 12.12128967 6.54781326 12.12128967 7 16 C3.52837986 14.84279329 2.86843073 14.0574321 1 11 C0.375 8.5 0.375 8.5 0 6 C-0.20625 5.278125 -0.4125 4.55625 -0.625 3.8125 C-1 2 -1 2 0 0 Z " fill="#404040" transform="translate(177,101)"/>
<path d="M0 0 C2.97 0 5.94 0 9 0 C9 4.62 9 9.24 9 14 C8.01 14.495 8.01 14.495 7 15 C7 10.71 7 6.42 7 2 C5.35 2.33 3.7 2.66 2 3 C1.67 11.91 1.34 20.82 1 30 C0.67 30 0.34 30 0 30 C0 20.1 0 10.2 0 0 Z " fill="#353535" transform="translate(42,97)"/>
<path d="M0 0 C3.92963735 2.62536799 6.18814554 5.56972702 7.76171875 10.09375 C7.43171875 11.08375 7.10171875 12.07375 6.76171875 13.09375 C6.49359375 12.536875 6.22546875 11.98 5.94921875 11.40625 C3.22594518 6.02179958 3.22594518 6.02179958 -1.23828125 2.09375 C-3.86359649 1.92661431 -3.86359649 1.92661431 -6.23828125 2.09375 C-6.23828125 1.43375 -6.23828125 0.77375 -6.23828125 0.09375 C-7.86396195 0.40268932 -9.48880873 0.7160195 -11.11328125 1.03125 C-12.01820312 1.20527344 -12.923125 1.37929687 -13.85546875 1.55859375 C-16.23784442 1.99338701 -16.23784442 1.99338701 -18.23828125 3.09375 C-17.90828125 2.10375 -17.57828125 1.11375 -17.23828125 0.09375 C-11.86157273 -1.69848617 -5.32998028 -2.15803739 0 0 Z " fill="#313131" transform="translate(99.23828125,97.90625)"/>
<path d="M0 0 C1.93166016 0.01740234 1.93166016 0.01740234 3.90234375 0.03515625 C5.19269531 0.04417969 6.48304688 0.05320312 7.8125 0.0625 C8.81152344 0.07410156 9.81054688 0.08570312 10.83984375 0.09765625 C10.83984375 0.42765625 10.83984375 0.75765625 10.83984375 1.09765625 C6.54984375 1.09765625 2.25984375 1.09765625 -2.16015625 1.09765625 C-2.16015625 4.72765625 -2.16015625 8.35765625 -2.16015625 12.09765625 C-5.22905812 13.63210719 -7.86109891 12.64749914 -11.16015625 12.09765625 C-11.16015625 10.11765625 -11.16015625 8.13765625 -11.16015625 6.09765625 C-10.83015625 6.09765625 -10.50015625 6.09765625 -10.16015625 6.09765625 C-10.16015625 7.74765625 -10.16015625 9.39765625 -10.16015625 11.09765625 C-8.18015625 11.09765625 -6.20015625 11.09765625 -4.16015625 11.09765625 C-4.17175781 10.38738281 -4.18335938 9.67710938 -4.1953125 8.9453125 C-4.20884766 7.56666016 -4.20884766 7.56666016 -4.22265625 6.16015625 C-4.23425781 5.24363281 -4.24585938 4.32710938 -4.2578125 3.3828125 C-4.10488393 -0.19571608 -3.66636749 0.11329937 0 0 Z " fill="#292929" transform="translate(211.16015625,115.90234375)"/>
<path d="M0 0 C0.66 0 1.32 0 2 0 C2 7.92 2 15.84 2 24 C-0.03112681 20.95330979 -0.27830065 20.09302718 -0.44921875 16.62109375 C-0.49240234 15.78255859 -0.53558594 14.94402344 -0.58007812 14.08007812 C-0.61552734 13.20802734 -0.65097656 12.33597656 -0.6875 11.4375 C-0.73455078 10.56158203 -0.78160156 9.68566406 -0.83007812 8.78320312 C-1.13585283 2.27170567 -1.13585283 2.27170567 0 0 Z " fill="#333333" transform="translate(243,98)"/>
<path d="M0 0 C2.6875 -0.5 2.6875 -0.5 6 0 C7.1953125 1.78125 7.1953125 1.78125 8.3125 4 C9.41297708 6.24011647 9.41297708 6.24011647 11 8 C14.09974302 8.71210313 16.87529531 8.49014976 20 8 C20.33 8.99 20.66 9.98 21 11 C17.54659024 11.49139427 14.43483292 11.68492204 11 11 C8.32466667 8.71133594 6.55562726 6.14919665 5 3 C5 2.34 5 1.68 5 1 C3.35 1.33 1.7 1.66 0 2 C0 1.34 0 0.68 0 0 Z " fill="#2F2F2F" transform="translate(321,118)"/>
<path d="M0 0 C1.32 0.66 2.64 1.32 4 2 C4.042721 3.66611905 4.04063832 5.33382885 4 7 C3 8 3 8 0.5 8.125 C-2 8 -2 8 -3 7 C-3.25 4.5625 -3.25 4.5625 -3 2 C-2.01 1.34 -1.02 0.68 0 0 Z M2 3 C3 6 3 6 3 6 Z " fill="#383839" transform="translate(387,97)"/>
<path d="M0 0 C2.31243792 -0.02685412 4.6249627 -0.04632841 6.9375 -0.0625 C8.22527344 -0.07410156 9.51304688 -0.08570312 10.83984375 -0.09765625 C14 0 14 0 15 1 C15.04092937 3.33297433 15.04241723 5.66705225 15 8 C14.34 7.67 13.68 7.34 13 7 C13 5.35 13 3.7 13 2 C8.71 2 4.42 2 0 2 C0 1.34 0 0.68 0 0 Z " fill="#292929" transform="translate(51,120)"/>
<path d="M0 0 C0.7425 0.2475 1.485 0.495 2.25 0.75 C0.86122646 4.10620271 -0.66677965 5.82298728 -3.75 7.75 C-4.41 7.75 -5.07 7.75 -5.75 7.75 C-6.5 6 -6.5 6 -6.75 3.75 C-4.62771652 0.72982736 -3.76812267 -0.34255661 0 0 Z " fill="#E88326" transform="translate(330.75,49.25)"/>
<path d="M0 0 C2.97 0 5.94 0 9 0 C10.32 3.3 11.64 6.6 13 10 C12.34 10 11.68 10 11 10 C10.608125 8.865625 10.21625 7.73125 9.8125 6.5625 C8.41720995 2.86148384 8.41720995 2.86148384 5.5625 2 C3.1563791 2 1.27506835 2.24164388 -1 3 C-0.67 2.01 -0.34 1.02 0 0 Z " fill="#333333" transform="translate(281,97)"/>
<path d="M0 0 C2.625 0.375 2.625 0.375 5 1 C3.52307692 5.67692308 3.52307692 5.67692308 0.875 7.3125 C0.25625 7.539375 -0.3625 7.76625 -1 8 C-1 7.01 -1 6.02 -1 5 C-0.34 5 0.32 5 1 5 C1 4.34 1 3.68 1 3 C-1.475 4.485 -1.475 4.485 -4 6 C-2.84826645 3.53199953 -1.95216435 1.95216435 0 0 Z " fill="#E88029" transform="translate(231,29)"/>
<path d="M0 0 C2 2 2 2 2.125 4.625 C2.08375 5.40875 2.0425 6.1925 2 7 C1.01 7 0.02 7 -1 7 C-1.66 7.66 -2.32 8.32 -3 9 C-5.475 8.01 -5.475 8.01 -8 7 C-8 6.34 -8 5.68 -8 5 C-5.525 5.495 -5.525 5.495 -3 6 C-2.01 4.02 -1.02 2.04 0 0 Z " fill="#E47E26" transform="translate(258,22)"/>
<path d="M0 0 C3.3 0 6.6 0 10 0 C9.67 1.32 9.34 2.64 9 4 C8.34 3.67 7.68 3.34 7 3 C2.94857881 2.74139865 1.45662331 2.69558446 -2 5 C-1.34 3.35 -0.68 1.7 0 0 Z " fill="#2D2D2D" transform="translate(23,116)"/>
<path d="M0 0 C7.57142857 3 7.57142857 3 10 6 C9.67 6.99 9.34 7.98 9 9 C8.484375 8.175 7.96875 7.35 7.4375 6.5 C5.14210148 3.59927598 5.14210148 3.59927598 1.25 3.6875 C0.1775 3.790625 -0.895 3.89375 -2 4 C-1.34 2.68 -0.68 1.36 0 0 Z " fill="#333333" transform="translate(89,102)"/>
<path d="M0 0 C5.66710699 1.31793186 7.66437233 3.48709197 11 8 C10.01 8.495 10.01 8.495 9 9 C8.62875 8.401875 8.2575 7.80375 7.875 7.1875 C5.57438992 4.50345491 3.20248935 3.4233286 0 2 C0 1.34 0 0.68 0 0 Z " fill="#2F2F2F" transform="translate(176,98)"/>
<path d="M0 0 C0.66 0.99 1.32 1.98 2 3 C-0.64738916 4.4606285 -1.89448334 5 -5 5 C-5.33 4.01 -5.66 3.02 -6 2 C-4.02 1.34 -2.04 0.68 0 0 Z " fill="#454545" transform="translate(284,98)"/>
<path d="M0 0 C3.3 0.33 6.6 0.66 10 1 C9.67 1.66 9.34 2.32 9 3 C6.03 3 3.06 3 0 3 C0 2.01 0 1.02 0 0 Z " fill="#2D2D2D" transform="translate(268,126)"/>
<path d="M0 0 C0.33 0.99 0.66 1.98 1 3 C0.01 3.99 -0.98 4.98 -2 6 C-1.34 7.32 -0.68 8.64 0 10 C-1.32 9.34 -2.64 8.68 -4 8 C-4 4 -4 4 -2 1.75 C-1.01 0.88375 -1.01 0.88375 0 0 Z " fill="#2E2E2E" transform="translate(338,112)"/>
<path d="M0 0 C1.32 0.66 2.64 1.32 4 2 C3.67 2.99 3.34 3.98 3 5 C3 4.34 3 3.68 3 3 C1.35 3 -0.3 3 -2 3 C-1.67 3.99 -1.34 4.98 -1 6 C-1.99 6.495 -1.99 6.495 -3 7 C-3.1875 4.625 -3.1875 4.625 -3 2 C-2.01 1.34 -1.02 0.68 0 0 Z " fill="#48484A" transform="translate(387,97)"/>
<path d="M0 0 C2.97 0 5.94 0 9 0 C8.67 0.99 8.34 1.98 8 3 C5.36 3 2.72 3 0 3 C0 2.01 0 1.02 0 0 Z " fill="#2C2C2C" transform="translate(42,97)"/>
<path d="M0 0 C1.65 1.32 3.3 2.64 5 4 C3.02 4.99 3.02 4.99 1 6 C0 5 0 5 -0.0625 2.4375 C-0.041875 1.633125 -0.02125 0.82875 0 0 Z " fill="#EA802A" transform="translate(320,6)"/>
<path d="" fill="#FFFFFF" transform="translate(0,0)"/>
<path d="" fill="#FFFFFF" transform="translate(0,0)"/>
<path d="" fill="#FFFFFF" transform="translate(0,0)"/>
<path d="" fill="#FFFFFF" transform="translate(0,0)"/>
<path d="" fill="#FFFFFF" transform="translate(0,0)"/>
<path d="" fill="#FFFFFF" transform="translate(0,0)"/>
<path d="" fill="#FFFFFF" transform="translate(0,0)"/>
<path d="" fill="#FFFFFF" transform="translate(0,0)"/>
<path d="" fill="#FFFFFF" transform="translate(0,0)"/>
<path d="" fill="#FFFFFF" transform="translate(0,0)"/>
<path d="" fill="#FFFFFF" transform="translate(0,0)"/>
<path d="" fill="#FFFFFF" transform="translate(0,0)"/>
<path d="" fill="#FFFFFF" transform="translate(0,0)"/>
<path d="" fill="#FFFFFF" transform="translate(0,0)"/>
<path d="" fill="#FFFFFF" transform="translate(0,0)"/>
<path d="" fill="#FFFFFF" transform="translate(0,0)"/>
<path d="" fill="#FFFFFF" transform="translate(0,0)"/>
<path d="" fill="#FFFFFF" transform="translate(0,0)"/>
<path d="" fill="#FFFFFF" transform="translate(0,0)"/>
<path d="" fill="#FFFFFF" transform="translate(0,0)"/>
<path d="" fill="#FFFFFF" transform="translate(0,0)"/>
<path d="" fill="#FFFFFF" transform="translate(0,0)"/>
<path d="" fill="#FFFFFF" transform="translate(0,0)"/>
<path d="" fill="#FFFFFF" transform="translate(0,0)"/>
<path d="" fill="#FFFFFF" transform="translate(0,0)"/>
<path d="" fill="#FFFFFF" transform="translate(0,0)"/>
<path d="" fill="#FFFFFF" transform="translate(0,0)"/>
<path d="" fill="#FFFFFF" transform="translate(0,0)"/>
<path d="" fill="#FFFFFF" transform="translate(0,0)"/>
<path d="" fill="#FFFFFF" transform="translate(0,0)"/>
<path d="" fill="#FFFFFF" transform="translate(0,0)"/>
<path d="" fill="#FFFFFF" transform="translate(0,0)"/>
<path d="" fill="#FFFFFF" transform="translate(0,0)"/>
<path d="" fill="#FFFFFF" transform="translate(0,0)"/>
<path d="" fill="#FFFFFF" transform="translate(0,0)"/>
<path d="" fill="#FFFFFF" transform="translate(0,0)"/>
<path d="" fill="#FFFFFF" transform="translate(0,0)"/>
<path d="" fill="#FFFFFF" transform="translate(0,0)"/>
<path d="" fill="#FFFFFF" transform="translate(0,0)"/>
<path d="" fill="#FFFFFF" transform="translate(0,0)"/>
<path d="" fill="#FFFFFF" transform="translate(0,0)"/>
<path d="" fill="#FFFFFF" transform="translate(0,0)"/>
<path d="" fill="#FFFFFF" transform="translate(0,0)"/>
<path d="" fill="#FFFFFF" transform="translate(0,0)"/>
<path d="" fill="#FFFFFF" transform="translate(0,0)"/>
<path d="" fill="#FFFFFF" transform="translate(0,0)"/>
<path d="" fill="#FFFFFF" transform="translate(0,0)"/>
<path d="" fill="#FFFFFF" transform="translate(0,0)"/>
<path d="" fill="#FFFFFF" transform="translate(0,0)"/>
<path d="" fill="#FFFFFF" transform="translate(0,0)"/>
<path d="" fill="#FFFFFF" transform="translate(0,0)"/>
<path d="" fill="#FFFFFF" transform="translate(0,0)"/>
<path d="" fill="#FFFFFF" transform="translate(0,0)"/>
<path d="" fill="#FFFFFF" transform="translate(0,0)"/>
<path d="" fill="#FFFFFF" transform="translate(0,0)"/>
<path d="" fill="#FFFFFF" transform="translate(0,0)"/>
<path d="" fill="#FFFFFF" transform="translate(0,0)"/>
<path d="" fill="#FFFFFF" transform="translate(0,0)"/>
<path d="" fill="#FFFFFF" transform="translate(0,0)"/>
<path d="" fill="#FFFFFF" transform="translate(0,0)"/>
<path d="" fill="#FFFFFF" transform="translate(0,0)"/>
</svg>
