<?xml version="1.0" encoding="UTF-8"?>
<svg version="1.1" xmlns="http://www.w3.org/2000/svg" width="820" height="304">
<path d="M0 0 C13.27346701 11.07121974 22.31143143 25.69856337 25 43 C26.45745928 62.97754845 22.1895425 80.42943227 9.07006836 95.88989258 C1.99758553 103.80662729 -7.56621778 111.19011014 -18 114 C-20.9845327 113.60571311 -21.82233132 113.17766868 -24 111 C-24.27124023 109.17163086 -24.27124023 109.17163086 -24.30859375 106.96484375 C-24.33373047 106.15466797 -24.35886719 105.34449219 -24.38476562 104.50976562 C-24.41935996 102.82233087 -24.45072051 101.13482607 -24.47851562 99.44726562 C-24.7163646 92.07394741 -25.58445614 85.31520342 -31 80 C-31 79.34 -31 78.68 -31 78 C-30.154375 77.78085938 -29.30875 77.56171875 -28.4375 77.3359375 C-18.98943379 74.69477354 -12.07493429 72.05941083 -7.0625 63.3125 C-3.43059965 56.1841261 -2.68233705 48.38188309 -4.6015625 40.54296875 C-5.61123473 37.87600626 -6.83890406 35.32852065 -8.09375 32.76953125 C-9.25694456 29.21476856 -9.21686633 25.87981962 -9.125 22.1875 C-9.11597656 21.49462891 -9.10695313 20.80175781 -9.09765625 20.08789062 C-9.07426157 18.39177605 -9.03839641 16.69584129 -9 15 C-10.93930548 15.61937508 -12.87639013 16.24570688 -14.8125 16.875 C-15.89144531 17.22304687 -16.97039062 17.57109375 -18.08203125 17.9296875 C-21.13315802 18.91959653 -21.13315802 18.91959653 -24 21 C-25.93669896 20.80571003 -27.87388252 20.59970617 -29.79736328 20.30175781 C-33.34212525 19.81613092 -36.86536062 19.85386789 -40.4375 19.875 C-41.18177246 19.8740332 -41.92604492 19.87306641 -42.69287109 19.87207031 C-46.58379767 19.89078896 -50.27916073 20.10130422 -54.125 20.75 C-59.22823968 21.07924127 -60.731618 19.68749978 -65 17 C-67.36709448 16.41403948 -69.55852954 16.19930371 -72 16 C-72.78386819 22.76509897 -72.78386819 22.76509897 -72.8125 29.5625 C-72.9955957 32.91925445 -73.50836429 34.37197616 -74.9375 37.3125 C-78.56756411 44.96156365 -78.71498812 51.77391932 -75.9453125 59.74609375 C-72.37852575 68.25037454 -66.42495358 72.76372506 -58.19140625 76.21875 C-55.48908493 77.18214441 -52.85122881 77.70756628 -50 78 C-51.36689554 81.15069422 -52.85657885 83.00891774 -55.5 85.1875 C-56.1084375 85.69667969 -56.716875 86.20585937 -57.34375 86.73046875 C-60.8696836 89.43313012 -63.60410266 89.44704041 -68 89 C-70.5 86.875 -70.5 86.875 -73 84 C-77.46837326 79.38574912 -77.46837326 79.38574912 -83.4375 77.625 C-84.283125 77.74875 -85.12875 77.8725 -86 78 C-86.33 78.66 -86.66 79.32 -87 80 C-86.2575 80.03351563 -85.515 80.06703125 -84.75 80.1015625 C-80.88421996 81.36453041 -79.8074262 83.9658709 -78 87.375 C-75.63599075 91.77628552 -73.70137943 94.86968745 -69 97 C-66.97734863 97.59301012 -66.97734863 97.59301012 -65 97.75 C-64.360625 97.82734375 -63.72125 97.9046875 -63.0625 97.984375 C-60.60209917 98.0030144 -58.39253578 97.54828945 -56 97 C-55.94597726 99.10388569 -55.90719744 101.20816714 -55.875 103.3125 C-55.85179687 104.48425781 -55.82859375 105.65601563 -55.8046875 106.86328125 C-56 110 -56 110 -58 113 C-61.46728017 114.43473662 -62.99719019 114.00099713 -66.56640625 112.734375 C-67.9089353 112.09449209 -69.24066694 111.43160966 -70.5625 110.75 C-71.26632813 110.39010986 -71.97015625 110.03021973 -72.6953125 109.65942383 C-89.14598049 100.82763939 -99.75476991 86.03616568 -105.109375 68.33203125 C-109.27643355 50.91982667 -105.85475068 32.49496913 -97.109375 17.171875 C-86.65605904 1.45318507 -71.41129027 -8.92443574 -53 -13 C-34.33100391 -16.60278872 -15.00391353 -11.56108918 0 0 Z " fill="#000000" transform="translate(241,102)"/>
<path d="M0 0 C4.6975159 4.64817224 7.84759205 10.31558816 8.859375 16.83984375 C1.66823728 19.38989259 -5.45368916 21.83984375 -13.140625 21.83984375 C-13.43453125 21.04320312 -13.43453125 21.04320312 -13.734375 20.23046875 C-15.74994722 15.46954817 -17.69083838 12.50072968 -22.53515625 10.46484375 C-29.5941154 8.77154021 -37.98565665 8.45255685 -44.765625 11.33984375 C-49.9211646 14.51162138 -52.31514901 19.47096019 -54.25 25.0234375 C-55.28599518 29.46276773 -55.52472942 33.54765022 -55.515625 38.08984375 C-55.51401367 38.92596191 -55.51240234 39.76208008 -55.51074219 40.62353516 C-55.35154954 48.68149265 -53.54637841 54.99063829 -49.265625 61.83984375 C-44.45375149 66.36866588 -39.28377112 67.59806328 -32.890625 68.08984375 C-26.15500587 67.64080247 -19.94022709 65.78061061 -15.140625 60.83984375 C-13.16011261 57.44467965 -12.09801678 54.66941086 -11.140625 50.83984375 C-19.060625 50.50984375 -26.980625 50.17984375 -35.140625 49.83984375 C-35.140625 43.56984375 -35.140625 37.29984375 -35.140625 30.83984375 C-19.960625 30.83984375 -4.780625 30.83984375 10.859375 30.83984375 C10.859375 63.7589614 10.859375 63.7589614 0.265625 75.625 C-10.26587785 85.336834 -23.01785994 87.51534361 -36.84375 87.15234375 C-49.0552368 86.50106445 -59.03022907 81.37081996 -67.390625 72.65234375 C-77.8581371 60.24563121 -79.24622495 45.41391991 -78.140625 29.83984375 C-76.43838925 17.9906871 -71.41045056 6.66125907 -62.140625 -1.16015625 C-42.95905848 -13.0129167 -18.40881551 -14.46932899 0 0 Z " fill="#000000" transform="translate(368.140625,115.16015625)"/>
<path d="M0 0 C6.93 0 13.86 0 21 0 C21 12.21 21 24.42 21 37 C32.22 37 43.44 37 55 37 C55 24.79 55 12.58 55 0 C61.93 0 68.86 0 76 0 C76 30.69 76 61.38 76 93 C69.07 93 62.14 93 55 93 C55 80.79 55 68.58 55 56 C43.78 56 32.56 56 21 56 C21 68.21 21 80.42 21 93 C14.07 93 7.14 93 0 93 C0 62.31 0 31.62 0 0 Z " fill="#000000" transform="translate(463,107)"/>
<path d="M0 0 C6.93 0 13.86 0 21 0 C21.33 10.89 21.66 21.78 22 33 C24.31 31.02 26.62 29.04 29 27 C36.15738418 23.37137267 43.60178109 23.28194118 51.16015625 25.6875 C58.35884654 28.79444918 63.21418294 34.57894201 66.4375 41.625 C68.30585362 47.36696608 68.38606779 53.07738838 68.4375 59.0625 C68.44773193 59.98434082 68.45796387 60.90618164 68.46850586 61.85595703 C68.32565995 73.07385588 65.32880439 81.47186319 57.51171875 89.53515625 C51.84619459 94.35717806 43.90532628 95.32811547 36.6640625 94.84375 C30.7573575 93.62972368 25.23424834 90.23424834 21 86 C20.67 88.31 20.34 90.62 20 93 C13.4 93 6.8 93 0 93 C0 62.31 0 31.62 0 0 Z M20 34 C21 36 21 36 21 36 Z M26 44 C20.49331033 49.79651544 20.49873138 55.56308482 20.64453125 63.2421875 C21.11075507 68.17083927 22.54594377 71.46810589 26 75 C30.27478737 77.84985825 33.98880694 77.48184549 39 77 C43.06344387 75.67496396 44.43560109 73.6133643 46.3125 69.9375 C49.19687588 62.75575439 48.94390042 55.14947246 46 48 C43.05148496 44.4139682 40.47514476 42.29543664 36 41 C32.01265607 41 29.54416155 42.19683009 26 44 Z " fill="#000000" transform="translate(617,107)"/>
<path d="M0 0 C6.6 0 13.2 0 20 0 C20.03738281 3.02285156 20.07476563 6.04570312 20.11328125 9.16015625 C20.15955268 12.10252938 20.21076593 15.04477812 20.26245117 17.98706055 C20.29561184 20.02474345 20.32367112 22.06251624 20.34643555 24.1003418 C20.38014462 27.03733463 20.43246874 29.97351023 20.48828125 32.91015625 C20.49467117 33.81459976 20.5010611 34.71904327 20.50764465 35.65089417 C20.6341957 41.15150255 21.35817462 45.13782667 24 50 C27.22629337 51.61314668 30.50232628 51.4429084 34 51 C37.30955153 49.56377952 39.3192786 48.43281423 40.90071106 45.10414124 C42.75616079 39.57814549 43.46438912 34.62118657 43.51171875 28.80859375 C43.52966995 27.97787857 43.54762115 27.14716339 43.56611633 26.29127502 C43.61970918 23.6733996 43.65394879 21.05570096 43.6875 18.4375 C43.72071831 16.64776211 43.75521206 14.85804741 43.79101562 13.06835938 C43.87777521 8.71222137 43.93827618 4.35685003 44 0 C50.6 0 57.2 0 64 0 C64 22.11 64 44.22 64 67 C57.4 67 50.8 67 44 67 C43.505 63.535 43.505 63.535 43 60 C42.48050781 60.40992188 41.96101562 60.81984375 41.42578125 61.2421875 C34.53872246 66.56342701 28.43258535 69.5444508 19.5078125 68.7890625 C13.76140903 67.86335009 9.06393068 66.30171386 5 62 C1.23920984 56.33588311 -0.13101586 50.70313763 -0.11352539 43.93432617 C-0.11344986 42.95368698 -0.11337433 41.97304779 -0.11329651 40.96269226 C-0.10813522 39.9166835 -0.10297394 38.87067474 -0.09765625 37.79296875 C-0.0962413 36.71243729 -0.09482635 35.63190582 -0.09336853 34.51863098 C-0.0877808 31.07489224 -0.0752305 27.63121902 -0.0625 24.1875 C-0.05748342 21.84961032 -0.05292079 19.51171961 -0.04882812 17.17382812 C-0.03781538 11.44919358 -0.02055912 5.7246079 0 0 Z " fill="#000000" transform="translate(546,133)"/>
<path d="M0 0 C0 5.61 0 11.22 0 17 C4.62 17 9.24 17 14 17 C14 22.61 14 28.22 14 34 C9.38 34 4.76 34 0 34 C0.33 44.56 0.66 55.12 1 66 C4.96 66.33 8.92 66.66 13 67 C14 68 14 68 14.09765625 71.59765625 C14.0909822 73.08596867 14.07902183 74.57426432 14.0625 76.0625 C14.05798828 76.82111328 14.05347656 77.57972656 14.04882812 78.36132812 C14.0370068 80.24091871 14.01907078 82.12046899 14 84 C10.12514365 84.08751413 6.25054357 84.14056435 2.375 84.1875 C1.28058594 84.21263672 0.18617188 84.23777344 -0.94140625 84.26367188 C-11.81174723 84.36249316 -11.81174723 84.36249316 -16 81 C-20.0837721 75.49986223 -20.67369614 69.79443212 -20.8125 63.125 C-20.84400146 62.22112549 -20.87550293 61.31725098 -20.90795898 60.38598633 C-21.14916198 51.5601145 -20.6980767 42.79576643 -20 34 C-23.96 34 -27.92 34 -32 34 C-32 28.39 -32 22.78 -32 17 C-28.04 17 -24.08 17 -20 17 C-20 12.71 -20 8.42 -20 4 C-17.60612843 3.32550034 -15.21030779 2.66023359 -12.8125 2 C-12.13896484 1.80921875 -11.46542969 1.6184375 -10.77148438 1.421875 C-6.9469132 0.37711409 -4.03123843 0 0 0 Z " fill="#000000" transform="translate(443,116)"/>
<path d="M0 0 C6.6 0 13.2 0 20 0 C20 22.11 20 44.22 20 67 C13.4 67 6.8 67 0 67 C0 44.89 0 22.78 0 0 Z " fill="#000000" transform="translate(385,133)"/>
<path d="M0 0 C3.47060168 2.06759249 5.77725393 4.10944433 7 8 C7.47584595 12.28261351 7.27767535 14.47440024 5.25 18.3125 C1.87891094 22.3390786 0.353706 22.84716223 -4.875 23.4375 C-8.05167887 23.35452704 -9.86547189 22.76845573 -12.375 20.8125 C-16.02150361 16.90553185 -17.03297684 14.84670292 -16.9375 9.5 C-15.82276962 5.33833993 -14.28026327 3.72021832 -11 1 C-7.53749757 -0.73125121 -3.78591771 -0.47815224 0 0 Z " fill="#000000" transform="translate(400,105)"/>
<path d="M0 0 C0.33 0 0.66 0 1 0 C1 1.65 1 3.3 1 5 C0.67 5 0.34 5 0 5 C0 3.35 0 1.7 0 0 Z " fill="#000000" transform="translate(215,206)"/>
<path d="M0 0 C3 1 3 1 3 1 Z " fill="#000000" transform="translate(155,180)"/>
<path d="M0 0 C2 1 2 1 2 1 Z " fill="#000000" transform="translate(515,142)"/>
<path d="" fill="#FFFFFF" transform="translate(0,0)"/>
<path d="" fill="#FFFFFF" transform="translate(0,0)"/>
<path d="" fill="#FFFFFF" transform="translate(0,0)"/>
<path d="" fill="#FFFFFF" transform="translate(0,0)"/>
<path d="" fill="#FFFFFF" transform="translate(0,0)"/>
<path d="" fill="#FFFFFF" transform="translate(0,0)"/>
<path d="" fill="#FFFFFF" transform="translate(0,0)"/>
<path d="" fill="#FFFFFF" transform="translate(0,0)"/>
<path d="" fill="#FFFFFF" transform="translate(0,0)"/>
<path d="" fill="#FFFFFF" transform="translate(0,0)"/>
<path d="" fill="#FFFFFF" transform="translate(0,0)"/>
<path d="" fill="#FFFFFF" transform="translate(0,0)"/>
<path d="" fill="#FFFFFF" transform="translate(0,0)"/>
<path d="" fill="#FFFFFF" transform="translate(0,0)"/>
<path d="" fill="#FFFFFF" transform="translate(0,0)"/>
<path d="" fill="#FFFFFF" transform="translate(0,0)"/>
<path d="" fill="#FFFFFF" transform="translate(0,0)"/>
<path d="" fill="#FFFFFF" transform="translate(0,0)"/>
<path d="" fill="#FFFFFF" transform="translate(0,0)"/>
<path d="" fill="#FFFFFF" transform="translate(0,0)"/>
<path d="" fill="#FFFFFF" transform="translate(0,0)"/>
<path d="" fill="#FFFFFF" transform="translate(0,0)"/>
<path d="" fill="#FFFFFF" transform="translate(0,0)"/>
<path d="" fill="#FFFFFF" transform="translate(0,0)"/>
<path d="" fill="#FFFFFF" transform="translate(0,0)"/>
<path d="" fill="#FFFFFF" transform="translate(0,0)"/>
<path d="" fill="#FFFFFF" transform="translate(0,0)"/>
<path d="" fill="#FFFFFF" transform="translate(0,0)"/>
<path d="" fill="#FFFFFF" transform="translate(0,0)"/>
<path d="" fill="#FFFFFF" transform="translate(0,0)"/>
<path d="" fill="#FFFFFF" transform="translate(0,0)"/>
<path d="" fill="#FFFFFF" transform="translate(0,0)"/>
<path d="" fill="#FFFFFF" transform="translate(0,0)"/>
<path d="" fill="#FFFFFF" transform="translate(0,0)"/>
<path d="" fill="#000000" transform="translate(0,0)"/>
<path d="" fill="#FFFFFF" transform="translate(0,0)"/>
<path d="" fill="#FFFFFF" transform="translate(0,0)"/>
<path d="" fill="#FFFFFF" transform="translate(0,0)"/>
<path d="" fill="#000000" transform="translate(0,0)"/>
<path d="" fill="#000000" transform="translate(0,0)"/>
<path d="" fill="#FFFFFF" transform="translate(0,0)"/>
<path d="" fill="#FFFFFF" transform="translate(0,0)"/>
<path d="" fill="#FFFFFF" transform="translate(0,0)"/>
<path d="" fill="#000000" transform="translate(0,0)"/>
<path d="" fill="#FFFFFF" transform="translate(0,0)"/>
<path d="" fill="#000000" transform="translate(0,0)"/>
<path d="" fill="#FFFFFF" transform="translate(0,0)"/>
<path d="" fill="#000000" transform="translate(0,0)"/>
<path d="" fill="#FFFFFF" transform="translate(0,0)"/>
<path d="" fill="#FFFFFF" transform="translate(0,0)"/>
<path d="" fill="#000000" transform="translate(0,0)"/>
<path d="" fill="#000000" transform="translate(0,0)"/>
<path d="" fill="#FFFFFF" transform="translate(0,0)"/>
<path d="" fill="#FFFFFF" transform="translate(0,0)"/>
<path d="" fill="#FFFFFF" transform="translate(0,0)"/>
<path d="" fill="#FFFFFF" transform="translate(0,0)"/>
<path d="" fill="#FFFFFF" transform="translate(0,0)"/>
<path d="" fill="#FFFFFF" transform="translate(0,0)"/>
<path d="" fill="#FFFFFF" transform="translate(0,0)"/>
<path d="" fill="#FFFFFF" transform="translate(0,0)"/>
<path d="" fill="#FFFFFF" transform="translate(0,0)"/>
<path d="" fill="#FFFFFF" transform="translate(0,0)"/>
<path d="" fill="#000000" transform="translate(0,0)"/>
<path d="" fill="#FFFFFF" transform="translate(0,0)"/>
<path d="" fill="#FFFFFF" transform="translate(0,0)"/>
<path d="" fill="#FFFFFF" transform="translate(0,0)"/>
<path d="" fill="#FFFFFF" transform="translate(0,0)"/>
<path d="" fill="#FFFFFF" transform="translate(0,0)"/>
<path d="" fill="#FFFFFF" transform="translate(0,0)"/>
<path d="" fill="#FFFFFF" transform="translate(0,0)"/>
<path d="" fill="#FFFFFF" transform="translate(0,0)"/>
<path d="" fill="#FFFFFF" transform="translate(0,0)"/>
<path d="" fill="#FFFFFF" transform="translate(0,0)"/>
<path d="" fill="#FFFFFF" transform="translate(0,0)"/>
<path d="" fill="#FFFFFF" transform="translate(0,0)"/>
<path d="" fill="#FFFFFF" transform="translate(0,0)"/>
<path d="" fill="#FFFFFF" transform="translate(0,0)"/>
<path d="" fill="#FFFFFF" transform="translate(0,0)"/>
<path d="" fill="#FFFFFF" transform="translate(0,0)"/>
<path d="" fill="#FFFFFF" transform="translate(0,0)"/>
</svg>
